# xmcd
#
# Track frame offsets:
#	150
#	35070
#	63055
#	92141
#	145398
#	200942
#
# Disc length: 3844 seconds
#
# Revision: 1
# Processed by: cddbd v1.5.2PL0 Copyright (c) Steve Scherf et al.
# Submitted via: audiograbber 1.83.01
#
DISCID=590f0206
DTITLE=Grateful Dead - 78-05-10A Veterans Memorial Coliseum, New Haven CT
DYEAR=1900
DGENRE=
TTITLE0=Bertha
TTITLE1=Good Lovin'
TTITLE2=It Must Have Been The Roses
TTITLE3=Estimated Prophet
TTITLE4=Eyes Of The World
TTITLE5=Drums
EXTD=
EXTT0=
EXTT1=
EXTT2=
EXTT3=
EXTT4=
EXTT5=
PLAYORDER=
